<?xml version="1.0" encoding="UTF-8" standalone="no"?>
<svg
   xmlns:dc="http://purl.org/dc/elements/1.1/"
   xmlns:cc="http://creativecommons.org/ns#"
   xmlns:rdf="http://www.w3.org/1999/02/22-rdf-syntax-ns#"
   xmlns:svg="http://www.w3.org/2000/svg"
   xmlns="http://www.w3.org/2000/svg"
   xmlns:sodipodi="http://sodipodi.sourceforge.net/DTD/sodipodi-0.dtd"
   xmlns:inkscape="http://www.inkscape.org/namespaces/inkscape"
   enable-background="new 0 0 24 24"
   height="24px"
   id="Layer_1"
   version="1.1"
   viewBox="0 0 24 24"
   width="24px"
   xml:space="preserve"
   sodipodi:docname="GamepadTimer.svg"
   inkscape:version="0.92pre1_64bit r15044"><metadata
     id="metadata3445"><rdf:RDF><cc:Work
         rdf:about=""><dc:format>image/svg+xml</dc:format><dc:type
           rdf:resource="http://purl.org/dc/dcmitype/StillImage" /><dc:title></dc:title></cc:Work></rdf:RDF></metadata><defs
     id="defs3443" /><sodipodi:namedview
     pagecolor="#ffffff"
     bordercolor="#666666"
     borderopacity="1"
     objecttolerance="10"
     gridtolerance="10"
     guidetolerance="10"
     inkscape:pageopacity="0"
     inkscape:pageshadow="2"
     inkscape:window-width="1920"
     inkscape:window-height="1018"
     id="namedview3441"
     showgrid="false"
     inkscape:zoom="16"
     inkscape:cx="-1.4022638"
     inkscape:cy="18.18677"
     inkscape:window-x="-8"
     inkscape:window-y="-8"
     inkscape:window-maximized="1"
     inkscape:current-layer="layer3" /><g
     inkscape:groupmode="layer"
     id="layer2"
     inkscape:label="gamepad"
     style="display:inline"><g
       id="g3438"
       transform="translate(0.10891372,0.07067141)"><path
         inkscape:connector-curvature="0"
         d="M 18,6 H 13 C 13,4.3 11.7,3 10,3 H 6 C 5.4,3 5,2.6 5,2 5,1.4 5.4059013,1.0839448 6,1 L 6.8002551,0.8869258 c 0,0 0.2701859,-0.12316129 0.2605609,-0.42300685 C 7.0497675,0.11972478 6.8531866,0.06300919 6.8531866,0.06300919 6.8531866,0.06300919 6.7218906,-0.06350228 6,0 4.8741451,0.09903766 4,0.9 4,2 4,3.1 4.9,4 6,4 h 4 c 1.1,0 2,0.9 2,2 H 6 C 2.7,6 0,8.7 0,12 v 8 c 0,2.2 1.8,4 4,4 1.1,0 2.1,-0.4 2.8,-1.2 l 4.6,-4.7 c 0.2,-0.1 0.3,-0.2 0.5,-0.2 0.2,0 0.4,0.1 0.5,0.2 l 4.6,4.7 c 0.7,0.7 1.7,1.2 2.8,1.2 2.2,0 4,-1.8 4,-4 V 12 C 24,8.7 21.3,6 18,6 Z m 4,14 c 0,1.1 -0.9,2 -2,2 -0.6,0 -1.1,-0.2 -1.4,-0.6 l -4.5,-4.5 c 0,0 -0.9,-0.9 -2.1,-0.9 -1.2,0 -2.1,0.9 -2.1,0.9 L 5.4,21.4 C 5.1,21.8 4.6,22 4,22 2.9,22 2,21.1 2,20 V 12 C 2,9.8 3.8,8 6,8 h 12 c 2.2,0 4,1.8 4,4 z"
         id="path3426"
         sodipodi:nodetypes="scsssscscsssscssssccsccsscsssccsccsssssss" /><circle
         cx="17"
         cy="15"
         r="1"
         id="circle3428" /><circle
         cx="17"
         cy="11"
         r="1"
         id="circle3430" /><circle
         cx="15"
         cy="13"
         r="1"
         id="circle3432" /><circle
         cx="19"
         cy="13"
         r="1"
         id="circle3434" /><path
         inkscape:connector-curvature="0"
         d="M 9,12 H 8 V 11 C 8,10.4 7.6,10 7,10 6.4,10 6,10.4 6,11 v 1 H 5 c -0.6,0 -1,0.4 -1,1 0,0.6 0.4,1 1,1 h 1 v 1 c 0,0.6 0.4,1 1,1 0.6,0 1,-0.4 1,-1 v -1 h 1 c 0.6,0 1,-0.4 1,-1 0,-0.6 -0.4,-1 -1,-1 z"
         id="path3436" /></g></g><g
     inkscape:groupmode="layer"
     id="layer3"
     inkscape:label="blanc autour du timer"
     style="display:inline"><path
       inkscape:connector-curvature="0"
       style="display:inline;fill:#fffffc;fill-opacity:1;stroke:#ffffff;stroke-width:1.61009133;stroke-linecap:round;stroke-miterlimit:10;stroke-dasharray:none;stroke-opacity:1"
       d="m 17.061632,0.31182863 c 4.042854,0 7.31959,3.10045187 7.31959,6.88252727 0,3.7823631 -3.276736,6.8134131 -7.31959,6.8134131 -4.042855,0 -7.3195913,-3.065608 -7.3195913,-6.8479708 0.090706,-3.9050194 2.8084133,-6.8188324 7.3195913,-6.84796957 z"
       stroke-miterlimit="10"
       id="path3457-4"
       sodipodi:nodetypes="csscc" /></g><g
     inkscape:groupmode="layer"
     id="layer1"
     inkscape:label="timer"
     style="display:inline"><rect
       y="0.5771417"
       x="10.42859"
       style="fill:none;stroke-width:0.26034942"
       height="12.901073"
       width="13.134919"
       id="rect3455" /><path
       inkscape:connector-curvature="0"
       style="fill:none;fill-opacity:1;stroke:#000000;stroke-width:1.421;stroke-linecap:round;stroke-miterlimit:10;stroke-dasharray:none;stroke-opacity:1"
       d="m 16.996051,3.157357 c 0,0.059314 0,-0.1714485 0,-2.32219428 3.48233,0 6.304761,2.77244168 6.304761,6.19251528 0,3.420334 -2.822431,6.192517 -6.304761,6.192517 -3.482331,0 -6.304762,-2.772183 -6.304762,-6.192517 0,-1.7091332 0.705082,-3.2567466 1.844668,-4.3773337"
       stroke-miterlimit="10"
       id="path3457"
       sodipodi:nodetypes="ccsssc" /><path
       inkscape:connector-curvature="0"
       d="m 17.553234,7.5752006 c -0.30762,0.3021433 -0.806484,0.3024007 -1.114367,0 -0.307882,-0.3024007 -2.736529,-3.7825951 -2.736529,-3.7825951 0,0 3.543013,2.3854079 3.850896,2.6878099 0.307882,0.302402 0.307882,0.792642 0,1.0947852 z"
       id="path3459"
       style="stroke-width:0.26034942" /></g></svg>